<svg width="341" height="104" viewBox="0 0 341 104" fill="none" xmlns="http://www.w3.org/2000/svg">
<path d="M341 4C341 1.79086 339.209 0 337 0H4C1.79086 0 0 1.79086 0 4V104H341V4Z" fill="#6231AD"/>
<mask id="mask0_3206_4689" style="mask-type:alpha" maskUnits="userSpaceOnUse" x="0" y="0" width="341" height="104">
<path d="M0 4C0 1.79086 1.79086 0 4 0H337C339.209 0 341 1.79086 341 4V104H0V4Z" fill="url(#paint0_linear_3206_4689)"/>
</mask>
<g mask="url(#mask0_3206_4689)">
<circle cx="136.5" cy="26.5" r="6" stroke="#D2BAF5"/>
<path d="M135.688 25.7166C135.688 25.551 135.822 25.4166 135.988 25.4166H137.013C137.178 25.4166 137.312 25.551 137.312 25.7166V29.45C137.312 29.6157 137.178 29.75 137.013 29.75H135.987C135.822 29.75 135.688 29.6157 135.688 29.45V25.7166Z" fill="#D2BAF5"/>
<path d="M135.688 23.5208C135.688 23.0721 136.051 22.7083 136.5 22.7083C136.949 22.7083 137.312 23.0721 137.312 23.5208C137.312 23.9695 136.949 24.3333 136.5 24.3333C136.051 24.3333 135.688 23.9695 135.688 23.5208Z" fill="#D2BAF5"/>
<ellipse cx="306" cy="115.5" rx="77" ry="59.5" fill="#5929A1"/>
<path fill-rule="evenodd" clip-rule="evenodd" d="M268.387 93.8607C268.387 77.2068 281.887 63.7063 298.541 63.7063C315.195 63.7063 328.696 77.2068 328.696 93.8607C328.696 110.515 315.195 124.015 298.541 124.015C281.887 124.015 268.387 110.515 268.387 93.8607Z" fill="#743CC9"/>
<path fill-rule="evenodd" clip-rule="evenodd" d="M272.95 93.8611C272.95 79.7273 284.408 68.2695 298.542 68.2695C312.676 68.2695 324.133 79.7273 324.133 93.8611C324.133 107.995 312.676 119.453 298.542 119.453C284.408 119.453 272.95 107.995 272.95 93.8611Z" fill="#6231AD"/>
<path fill-rule="evenodd" clip-rule="evenodd" d="M311.931 72.017C314.479 75.9956 315.957 80.7261 315.957 85.8017C315.957 99.9356 304.499 111.393 290.365 111.393C285.457 111.393 280.871 110.01 276.976 107.614C281.524 114.715 289.483 119.421 298.541 119.421C312.675 119.421 324.133 107.963 324.133 93.8293C324.133 84.6041 319.251 76.5202 311.931 72.017Z" fill="#542898"/>
<path fill-rule="evenodd" clip-rule="evenodd" d="M277.433 96.2025C277.433 83.726 287.548 73.6118 300.024 73.6118C307.317 73.6118 313.801 77.0683 317.932 82.4315C314.031 75.6593 306.719 71.1002 298.343 71.1002C285.866 71.1002 275.752 81.2144 275.752 93.6909C275.752 98.8748 277.499 103.65 280.435 107.462C278.526 104.147 277.433 100.303 277.433 96.2025Z" fill="#542898"/>
<path fill-rule="evenodd" clip-rule="evenodd" d="M295.709 88.4978C295.709 89.3836 295.718 90.2693 295.704 91.1547C295.699 91.4252 295.792 91.5024 296.054 91.4956C296.676 91.4797 297.299 91.4823 297.921 91.4926C298.931 91.5091 299.936 91.455 300.931 91.2796C302.387 91.0231 303.309 90.177 303.514 88.8527C303.711 87.5744 303.164 86.3737 301.91 85.8936C301.13 85.5948 300.302 85.5472 299.48 85.5255C298.332 85.4953 297.183 85.5209 296.034 85.5079C295.779 85.505 295.702 85.5917 295.705 85.841C295.716 86.7266 295.709 87.6123 295.709 88.4978ZM295.699 98.4021C295.702 98.4021 295.705 98.4021 295.708 98.4021C295.708 99.0951 295.7 99.7881 295.711 100.481C295.718 100.883 295.682 101.289 295.767 101.687C295.848 102.068 296.015 102.202 296.398 102.234C297.326 102.314 298.256 102.293 299.184 102.272C299.954 102.255 300.723 102.206 301.476 101.999C303.883 101.34 304.678 98.5483 303.513 96.7331C302.969 95.8856 302.096 95.5405 301.146 95.3652C300.585 95.2614 300.014 95.254 299.445 95.2267C298.261 95.1697 297.078 95.2165 295.894 95.1993C295.753 95.1974 295.695 95.2494 295.696 95.4029C295.702 96.4026 295.699 97.4024 295.699 98.4021ZM293.922 110.349C293.921 109.121 293.921 107.893 293.919 106.664C293.919 106.311 293.918 106.31 293.572 106.31C291.361 106.309 289.15 106.31 286.94 106.309C286.561 106.309 286.556 106.305 286.556 105.93C286.555 105.009 286.554 104.087 286.556 103.166C286.557 102.828 286.578 102.81 286.915 102.808C287.397 102.805 287.878 102.808 288.36 102.766C289.046 102.704 289.39 102.369 289.452 101.682C289.489 101.27 289.492 100.859 289.492 100.446C289.492 96.0334 289.493 91.6203 289.49 87.2073C289.49 86.8218 289.471 86.4358 289.447 86.0509C289.41 85.4443 288.998 85.0466 288.386 84.9843C287.878 84.9326 287.37 84.9295 286.862 84.9408C286.632 84.9459 286.551 84.8628 286.553 84.6363C286.56 83.6712 286.561 82.7061 286.552 81.7411C286.55 81.4926 286.651 81.431 286.883 81.4316C289.103 81.4381 291.322 81.4356 293.542 81.4353C293.918 81.4353 293.919 81.4345 293.92 81.058C293.92 79.9438 293.926 78.8294 293.915 77.7154C293.913 77.451 293.998 77.3673 294.264 77.3712C295.22 77.3854 296.176 77.3862 297.132 77.3707C297.407 77.3664 297.472 77.4649 297.47 77.721C297.459 78.8526 297.472 79.9846 297.46 81.1162C297.457 81.3745 297.542 81.4486 297.791 81.4403C298.291 81.4239 298.791 81.4358 299.292 81.4353C299.644 81.4349 299.645 81.4342 299.646 81.0918C299.646 79.9952 299.646 78.8985 299.646 77.8017C299.646 77.3771 299.646 77.3768 300.083 77.3767C300.986 77.3766 301.89 77.3765 302.794 77.3768C303.19 77.377 303.192 77.3775 303.192 77.7651C303.193 78.9319 303.199 80.0989 303.187 81.2656C303.184 81.527 303.28 81.6176 303.527 81.6459C305.151 81.8324 306.622 82.3884 307.859 83.4885C308.453 84.0163 308.893 84.6598 309.194 85.388C309.871 87.031 309.778 88.6459 308.917 90.1991C308.294 91.3236 307.352 92.1185 306.209 92.6883C305.876 92.8545 305.526 92.984 305.19 93.1819C305.61 93.3175 306.032 93.447 306.449 93.5899C307.375 93.9071 308.213 94.3824 308.894 95.0891C309.762 95.9909 310.302 97.0641 310.468 98.3174C310.792 100.775 309.894 102.739 308.01 104.269C306.715 105.32 305.179 105.825 303.542 106.038C303.279 106.072 303.183 106.155 303.186 106.428C303.197 107.735 303.189 109.042 303.187 110.349C302.012 110.349 300.836 110.349 299.66 110.349C299.655 110.235 299.646 110.122 299.646 110.008C299.644 108.886 299.636 107.763 299.651 106.64C299.655 106.367 299.565 106.293 299.305 106.304C298.858 106.323 298.41 106.308 297.963 106.31C297.411 106.313 297.468 106.252 297.465 106.798C297.459 107.982 297.454 109.166 297.449 110.349C296.274 110.349 295.098 110.349 293.922 110.349Z" fill="#4D1C8B"/>
<path d="M262.317 108.603C258.363 99.4213 258.218 89.045 261.914 79.7566L264.041 80.6029C260.569 89.3272 260.705 99.0734 264.419 107.697L262.317 108.603Z" fill="#743CC9"/>
<path d="M264.964 84.0831L265.2 84.5228L265.64 84.2869L266.924 83.5988L267.364 83.3626L267.128 82.9219L264.2 77.4601L263.964 77.0194L263.524 77.2556L258.062 80.1834L257.621 80.4196L257.857 80.8603L258.545 82.1438L258.781 82.5839L259.221 82.3486L262.305 80.7012L263.308 81.004L264.964 84.0831Z" fill="#743CC9" stroke="#743CC9"/>
<path d="M335.338 78.7833C339.292 87.9647 339.437 98.341 335.741 107.629L333.614 106.783C337.086 98.0588 336.95 88.3126 333.236 79.6886L335.338 78.7833Z" fill="#743CC9"/>
<path d="M332.692 103.303L332.455 102.863L332.015 103.099L330.732 103.787L330.291 104.023L330.527 104.464L333.455 109.926L333.691 110.367L334.132 110.13L339.594 107.203L340.035 106.966L339.798 106.526L339.11 105.242L338.874 104.802L338.434 105.037L335.35 106.685L334.348 106.382L332.692 103.303Z" fill="#743CC9" stroke="#743CC9"/>
</g>
<defs>
<linearGradient id="paint0_linear_3206_4689" x1="233" y1="51.4157" x2="497" y2="51.4157" gradientUnits="userSpaceOnUse">
<stop stop-color="#6231AD"/>
<stop offset="1" stop-color="#FE4190"/>
</linearGradient>
</defs>
</svg>
